<?xml version="1.0" encoding="UTF-8"?>
<svg xmlns="http://www.w3.org/2000/svg" version="1.1" viewBox="0 0 500 500" width="256" height="256">
    <defs>
        <style>
            .cls-1 {
            fill: #fff;
            }
        </style>
    </defs>
    <g>
        <g id="Layer_1">
            <path class="cls-1" d="M249.66,390.26c-56.98,0-113.97-.26-170.95.14-22.34.16-36.88-13.56-41.06-27.92-1.42-4.88-2.01-10.16-2.02-15.26-.12-64.98-.1-129.96-.05-194.95.02-25.56,16.58-42.47,42.08-42.5,115.14-.1,230.27-.1,345.41,0,24.52.02,41.27,17.1,41.3,41.75.07,65.65.07,131.3,0,196.95-.03,24.93-16.71,41.68-41.76,41.74-57.65.13-115.3.04-172.95.05ZM249.96,371.81c56.82,0,113.64,0,170.45,0,17.35,0,25.51-8.07,25.51-25.28,0-63.32-.36-126.64.22-189.95.17-18.5-8.1-28.68-28.66-28.6-112.64.43-225.27.21-337.91.2-17.3,0-25.49,8.09-25.49,25.3,0,64.15.01,128.3,0,192.45,0,17.89,7.95,25.87,25.91,25.87,56.65,0,113.3,0,169.95,0Z"/>
            <path class="cls-1" d="M178.17,231.48c10.21-12.75,20.87-24.52,29.69-37.54,7.35-10.84,15.87-15.58,28.91-13.74,7.47,1.05,15.2.19,22.99.19v138.91h-40.59v-77.66c-.39-.13-.77-.26-1.16-.38-13.15,16.4-26.29,32.81-39.78,49.63-13.47-16.82-26.64-33.25-39.8-49.69-.35.1-.7.19-1.05.29v77.82h-40.81v-138.46c1.78-.14,3.69-.42,5.6-.43,10.16-.05,20.33.11,30.48-.11,3.39-.07,5.51,1.14,7.55,3.73,11.23,14.26,22.6,28.4,33.94,42.58,1.22,1.53,2.49,3.02,4.03,4.88Z"/>
            <path class="cls-1" d="M350.13,321.67c-20.54-23.98-40.54-47.32-61.21-71.46h40.67v-69.83c5.63,0,10.59,0,15.54,0,6.83,0,13.67.22,20.48-.1,4.07-.19,5.06,1.26,5.02,5.12-.17,19.32-.08,38.63-.09,57.95,0,1.98,0,3.96,0,6.45h41.05c-20.94,24.48-40.96,47.89-61.47,71.87Z"/>
        </g>
    </g>
</svg>